<svg width="32" height="23" viewBox="0 0 32 23" fill="currentColor" xmlns="http://www.w3.org/2000/svg">
<path fill-rule="evenodd" clip-rule="evenodd" d="M29.9 3.22767L17.274 13.248C16.9152 13.5329 16.4639 13.6888 15.998 13.6888C15.5321 13.6888 15.0808 13.5329 14.722 13.248L2.102 3.22767C2.03429 3.423 1.99984 3.62751 2 3.83333V19.1667C2 19.675 2.21071 20.1625 2.58579 20.522C2.96086 20.8814 3.46957 21.0833 4 21.0833H28C28.5304 21.0833 29.0391 20.8814 29.4142 20.522C29.7893 20.1625 30 19.675 30 19.1667V3.83333C30.0008 3.62761 29.967 3.4231 29.9 3.22767ZM4 0H28C29.0609 0 30.0783 0.403868 30.8284 1.12276C31.5786 1.84165 32 2.81667 32 3.83333V19.1667C32 20.1833 31.5786 21.1584 30.8284 21.8772C30.0783 22.5961 29.0609 23 28 23H4C2.93913 23 1.92172 22.5961 1.17157 21.8772C0.421427 21.1584 0 20.1833 0 19.1667V3.83333C0 2.81667 0.421427 1.84165 1.17157 1.12276C1.92172 0.403868 2.93913 0 4 0ZM3.58 1.91667L14.732 10.7391C15.0892 11.0218 15.5377 11.1769 16.0009 11.178C16.4642 11.179 16.9134 11.0259 17.272 10.7448L28.536 1.91667H3.58Z" fill="currentColor"/>
</svg>
