<svg width="32" height="33" viewBox="0 0 32 33" fill="none" xmlns="http://www.w3.org/2000/svg">
<path d="M5.84848 9.00004C5.62345 9.00004 5.40764 9.08959 5.24852 9.24899C5.08939 9.4084 5 9.6246 5 9.85003C5 10.0755 5.08939 10.2917 5.24852 10.4511C5.40764 10.6105 5.62345 10.7 5.84848 10.7H7.73212L9.95855 19.625C10.1478 20.3815 10.824 20.9 11.6021 20.9H22.1827C22.9488 20.9 23.5996 20.39 23.8007 19.6505L26 11.55H24.2233L22.1818 19.2H11.6012L9.37564 10.275C9.2837 9.90888 9.07177 9.58422 8.77379 9.35305C8.4758 9.12188 8.109 8.99758 7.73212 9.00004H5.84848ZM21.1212 20.9C19.7255 20.9 18.5758 22.0518 18.5758 23.45C18.5758 24.8483 19.7255 26 21.1212 26C22.517 26 23.6667 24.8483 23.6667 23.45C23.6667 22.0518 22.517 20.9 21.1212 20.9ZM13.4848 20.9C12.0891 20.9 10.9394 22.0518 10.9394 23.45C10.9394 24.8483 12.0891 26 13.4848 26C14.8806 26 16.0303 24.8483 16.0303 23.45C16.0303 22.0518 14.8806 20.9 13.4848 20.9ZM16.0303 9.00004V13.25H13.4848L16.8788 16.65L20.2727 13.25H17.7273V9.00004H16.0303ZM13.4848 22.6C13.9634 22.6 14.3333 22.9706 14.3333 23.45C14.3333 23.9294 13.9634 24.3 13.4848 24.3C13.0063 24.3 12.6364 23.9294 12.6364 23.45C12.6364 22.9706 13.0063 22.6 13.4848 22.6ZM21.1212 22.6C21.5998 22.6 21.9697 22.9706 21.9697 23.45C21.9697 23.9294 21.5998 24.3 21.1212 24.3C20.6427 24.3 20.2727 23.9294 20.2727 23.45C20.2727 22.9706 20.6427 22.6 21.1212 22.6Z" fill="white"/>
</svg>
