<svg width="17" height="17" viewBox="0 0 17 17" fill="none" xmlns="http://www.w3.org/2000/svg">
<g clip-path="url(#clip0_21_284)">
<path d="M9.46022 1.15881L9.46023 1.15881C9.70191 0.918787 10.0287 0.784134 10.3693 0.784227C10.3694 0.784227 10.3695 0.784227 10.3696 0.784227H14.4495H14.45V1.59375L9.46022 1.15881ZM9.46022 1.15881L9.45825 1.16078M9.46022 1.15881L9.45825 1.16078M9.45825 1.16078L1.30024 9.31879L1.29884 9.3202M9.45825 1.16078L1.29884 9.3202M1.29884 9.3202C0.969251 9.6514 0.784226 10.0996 0.784226 10.5669C0.784226 11.0341 0.969251 11.4824 1.29884 11.8136L1.30024 11.815M1.29884 9.3202L1.30024 11.815M1.30024 11.815L5.185 15.6998L5.18641 15.7012M1.30024 11.815L5.18641 15.7012M5.18641 15.7012C5.51761 16.0308 5.96586 16.2158 6.43311 16.2158C6.90036 16.2158 7.3486 16.0308 7.67981 15.7012L7.68121 15.6998M5.18641 15.7012L7.68121 15.6998M7.68121 15.6998L15.8359 7.54508L15.8379 7.5431M7.68121 15.6998L15.8379 7.5431M15.8379 7.5431C16.078 7.30127 16.2127 6.97421 16.2125 6.6334M15.8379 7.5431L16.2125 6.6334M16.2125 6.6334V6.63399H15.4029C15.403 6.76087 15.3529 6.88263 15.2635 6.97266L16.2125 6.6334ZM16.2125 6.6334V2.55171V6.6334Z" stroke="black" stroke-width="1.61905" stroke-linecap="round" stroke-linejoin="round"/>
<path d="M12.75 5.3125C12.5399 5.3125 12.3344 5.25019 12.1597 5.13344C11.985 5.01669 11.8488 4.85075 11.7684 4.6566C11.688 4.46246 11.6669 4.24882 11.7079 4.04272C11.7489 3.83661 11.8501 3.64729 11.9987 3.4987C12.1473 3.35011 12.3366 3.24891 12.5427 3.20792C12.7488 3.16692 12.9625 3.18796 13.1566 3.26838C13.3507 3.3488 13.5167 3.48498 13.6334 3.65971C13.7502 3.83443 13.8125 4.03986 13.8125 4.25C13.8125 4.53179 13.7006 4.80204 13.5013 5.0013C13.302 5.20056 13.0318 5.3125 12.75 5.3125Z" fill="black"/>
</g>
<defs>
<clipPath id="clip0_21_284">
<rect width="17" height="17" fill="white"/>
</clipPath>
</defs>
</svg>
